<?xml version="1.0" encoding="UTF-8" standalone="no"?>
<!-- Created with Inkscape (http://www.inkscape.org/) -->

<svg
   width="433.133"
   height="158.11501"
   viewBox="0 0 433.133 158.11501"
   version="1.1"
   id="svg1"
   inkscape:version="1.3.2 (091e20e, 2023-11-25)"
   sodipodi:docname="resty-logo-gs.svg"
   inkscape:export-filename="../resty-docs/docs/static/img/resty-logo-gs.svg"
   inkscape:export-xdpi="96"
   inkscape:export-ydpi="96"
   xmlns:inkscape="http://www.inkscape.org/namespaces/inkscape"
   xmlns:sodipodi="http://sodipodi.sourceforge.net/DTD/sodipodi-0.dtd"
   xmlns="http://www.w3.org/2000/svg"
   xmlns:svg="http://www.w3.org/2000/svg">
  <sodipodi:namedview
     id="namedview1"
     pagecolor="#ffffff"
     bordercolor="#000000"
     borderopacity="0.25"
     inkscape:showpageshadow="2"
     inkscape:pageopacity="0.0"
     inkscape:pagecheckerboard="0"
     inkscape:deskcolor="#d1d1d1"
     inkscape:document-units="px"
     inkscape:zoom="1.5"
     inkscape:cx="231.66667"
     inkscape:cy="101.66667"
     inkscape:window-width="1728"
     inkscape:window-height="978"
     inkscape:window-x="797"
     inkscape:window-y="1928"
     inkscape:window-maximized="1"
     inkscape:current-layer="g5" />
  <defs
     id="defs1">
    <inkscape:path-effect
       effect="fillet_chamfer"
       id="path-effect10"
       is_visible="true"
       lpeversion="1"
       nodesatellites_param="F,0,1,1,0,8.5066803,0,1 @ F,0,1,1,0,8.5066803,0,1 @ F,0,0,1,0,8.5066803,0,1 @ F,0,1,1,0,8.5066803,0,1"
       radius="0"
       unit="px"
       method="auto"
       mode="F"
       chamfer_steps="1"
       flexible="false"
       use_knot_distance="true"
       apply_no_radius="true"
       apply_with_radius="true"
       only_selected="false"
       hide_knots="false" />
    <inkscape:path-effect
       effect="fillet_chamfer"
       id="path-effect9"
       is_visible="true"
       lpeversion="1"
       nodesatellites_param="F,0,0,1,0,0,0,1 @ F,0,0,1,0,0,0,1 @ F,0,0,1,0,0,0,1 @ F,0,0,1,0,0,0,1"
       radius="0"
       unit="px"
       method="auto"
       mode="F"
       chamfer_steps="1"
       flexible="false"
       use_knot_distance="true"
       apply_no_radius="true"
       apply_with_radius="true"
       only_selected="false"
       hide_knots="false" />
    <inkscape:path-effect
       effect="fillet_chamfer"
       id="path-effect8"
       is_visible="true"
       lpeversion="1"
       nodesatellites_param="F,0,0,1,0,0,0,1 @ F,0,0,1,0,0,0,1 @ F,0,0,1,0,0,0,1 @ F,0,0,1,0,0,0,1"
       radius="0"
       unit="px"
       method="auto"
       mode="F"
       chamfer_steps="1"
       flexible="false"
       use_knot_distance="true"
       apply_no_radius="true"
       apply_with_radius="true"
       only_selected="false"
       hide_knots="false" />
    <inkscape:path-effect
       effect="fillet_chamfer"
       id="path-effect7"
       is_visible="true"
       lpeversion="1"
       nodesatellites_param="F,0,0,1,0,0,0,1 @ F,0,0,1,0,0,0,1 @ F,0,0,1,0,0,0,1 @ F,0,0,1,0,0,0,1"
       radius="0"
       unit="px"
       method="auto"
       mode="F"
       chamfer_steps="1"
       flexible="false"
       use_knot_distance="true"
       apply_no_radius="true"
       apply_with_radius="true"
       only_selected="false"
       hide_knots="false" />
    <inkscape:path-effect
       effect="fillet_chamfer"
       id="path-effect6"
       is_visible="true"
       lpeversion="1"
       nodesatellites_param="F,0,0,1,0,4.3765779,0,1 @ F,0,0,1,0,5,0,1 @ F,0,0,1,0,4.376578,0,1 @ F,0,0,1,0,5.4,0,1"
       radius="0"
       unit="px"
       method="auto"
       mode="F"
       chamfer_steps="1"
       flexible="false"
       use_knot_distance="true"
       apply_no_radius="true"
       apply_with_radius="true"
       only_selected="false"
       hide_knots="false" />
    <inkscape:path-effect
       effect="fillet_chamfer"
       id="path-effect5"
       is_visible="true"
       lpeversion="1"
       nodesatellites_param="F,0,0,1,0,4.3765779,0,1 @ F,0,0,1,0,0,0,1 @ F,0,0,1,0,0,0,1 @ F,0,0,1,0,0,0,1"
       radius="0"
       unit="px"
       method="auto"
       mode="F"
       chamfer_steps="1"
       flexible="false"
       use_knot_distance="true"
       apply_no_radius="true"
       apply_with_radius="true"
       only_selected="false"
       hide_knots="false" />
    <rect
       x="20"
       y="169"
       width="479"
       height="176"
       id="rect3" />
    <rect
       x="42"
       y="169"
       width="439"
       height="196"
       id="rect2" />
  </defs>
  <g
     inkscape:groupmode="layer"
     id="layer4"
     inkscape:label="Layer 4" />
  <g
     inkscape:groupmode="layer"
     id="layer3"
     inkscape:label="Layer 3"
     style="display:inline" />
  <g
     inkscape:label="Layer 1"
     inkscape:groupmode="layer"
     id="layer1"
     style="display:inline" />
  <g
     inkscape:groupmode="layer"
     id="layer2"
     inkscape:label="Layer 2"
     transform="matrix(1.2529643,0,0,1.2042547,140.45377,57.697941)"
     style="display:inline">
    <g
       id="g5"
       transform="matrix(1.0007822,0,0,1.0007255,-0.24432323,-147.88175)"
       inkscape:export-filename="./g5.svg"
       inkscape:export-xdpi="96"
       inkscape:export-ydpi="96">
      <path
         id="rect4"
         style="display:inline;fill:#808080;stroke-width:0.998247;paint-order:fill markers stroke"
         inkscape:label="rect4"
         transform="matrix(0.67543356,0,0,0.83038912,-112.02358,-47.911742)"
         d="M 9.1066803,178 H 503.49331 a 8.5066803,8.5066803 45 0 1 8.50668,8.50668 V 327.49332 A 8.5066803,8.5066803 135 0 1 503.49331,336 H 9.1066803 A 8.5066803,8.5066803 45 0 1 0.60000002,327.49332 V 186.50668 A 8.5066803,8.5066803 135 0 1 9.1066803,178 Z"
         inkscape:path-effect="#path-effect10"
         inkscape:original-d="M 0.60000002,178 H 511.99999 V 336 H 0.60000002 Z" />
      <path
         style="font-weight:bold;font-size:150.702px;font-family:Damascus;-inkscape-font-specification:'Damascus Bold';text-align:center;text-anchor:middle;white-space:pre;fill:#ffffff"
         d="m 97.870638,230.47674 q 0,-4.12076 -1.692454,-7.06416 -1.692454,-2.9434 -5.813212,-4.63585 -2.869813,-1.17736 -6.696231,-1.39812 -3.826418,-0.29434 -8.90378,-0.29434 h -10.22831 v 29.50757 h 8.683026 q 6.769816,0 11.332083,-0.66226 4.562268,-0.66227 7.652836,-3.01698 2.943398,-2.28114 4.267928,-5.00378 1.398114,-2.79623 1.398114,-7.43208 z M 141.94803,306.49 H 107.43668 L 77.561189,266.31261 H 64.536651 V 306.49 H 36.427197 V 196.922 h 47.388714 q 9.713214,0 16.703789,1.10377 6.99057,1.10377 13.09812,4.78302 6.18114,3.67925 9.7868,9.56605 3.67925,5.81321 3.67925,14.6434 0,12.14152 -5.66605,19.79436 -5.59245,7.65283 -16.04152,12.7302 z m 92.27553,-36.42456 h -60.634 q 0.58868,9.71322 7.35849,14.86417 6.84341,5.15094 20.0887,5.15094 8.38868,0 16.26227,-3.01698 7.87359,-3.01698 12.43586,-6.47548 h 2.9434 v 21.26606 q -8.97736,3.60566 -16.92454,5.22453 -7.94718,1.61887 -17.58681,1.61887 -24.87171,0 -38.117,-11.18492 -13.2453,-11.18491 -13.2453,-31.86228 0,-20.45662 12.50945,-32.37738 12.58302,-11.99435 34.43776,-11.99435 20.16228,0 30.317,10.22831 10.15472,10.15472 10.15472,29.28681 z m -26.34341,-15.52642 q -0.22076,-8.3151 -4.12076,-12.50944 -3.9,-4.19435 -12.14152,-4.19435 -7.65283,0 -12.58302,3.97359 -4.9302,3.97359 -5.51888,12.7302 z m 116.85292,25.75473 q 0,12.80379 -11.47926,20.67738 -11.47925,7.8 -31.42077,7.8 -11.03775,0 -20.01511,-2.06038 -8.97737,-2.06037 -14.42266,-4.56226 v -21.78115 h 2.42831 q 1.98679,1.39811 4.56227,3.09057 2.64905,1.61887 7.43208,3.53208 4.12075,1.69245 9.34529,2.94339 5.22453,1.17736 11.18491,1.17736 7.80001,0 11.55284,-1.69245 3.75283,-1.76604 3.75283,-5.15095 0,-3.01698 -2.20755,-4.34151 -2.20755,-1.39811 -8.38868,-2.64906 -2.9434,-0.66226 -8.02076,-1.39811 -5.00378,-0.80944 -9.12454,-1.91321 -11.2585,-2.9434 -16.70378,-9.12454 -5.44529,-6.25472 -5.44529,-15.52642 0,-11.92077 11.2585,-19.79436 11.33208,-7.94717 30.90568,-7.94717 9.27171,0 17.73398,1.91321 8.53585,1.83962 13.31887,3.97358 v 20.89813 h -2.28113 q -5.8868,-4.04717 -13.46605,-6.54906 -7.50566,-2.57547 -15.23208,-2.57547 -6.4019,0 -10.81699,1.76604 -4.34152,1.76604 -4.34152,5.00377 0,2.9434 1.9868,4.48869 1.98679,1.54528 9.34529,3.09056 4.04717,0.80944 8.68302,1.61887 4.70944,0.73585 9.41888,1.91321 10.44906,2.72265 15.45284,8.60944 5.00378,5.81321 5.00378,14.56982 z m 70.42081,25.4604 q -4.26793,1.10377 -9.05095,1.69245 -4.78302,0.66227 -11.70001,0.66227 -15.45284,0 -23.03209,-6.25472 -7.50567,-6.25472 -7.50567,-21.41323 v -38.6321 h -10.89057 v -17.95473 h 10.89057 v -23.62077 h 26.49059 v 23.62077 h 24.79813 v 17.95473 h -24.79813 v 29.28681 q 0,4.34152 0.0736,7.57926 0.0736,3.23773 1.17736,5.81321 1.03019,2.57547 3.60566,4.12075 2.64906,1.4717 7.65284,1.4717 2.06038,0 5.3717,-0.88302 3.38491,-0.88302 4.70944,-1.61886 h 2.20755 z m 53.12833,-28.47738 18.83775,-53.42268 h 27.22643 L 448.42938,336.807 h -28.69814 l 13.09813,-30.90568 -32.15663,-82.04723 h 27.81511 z"
         id="text2"
         transform="matrix(0.63706397,0,0,0.65960201,-106.47352,-2.7822378)"
         aria-label="Resty" />
    </g>
  </g>
</svg>
